HIERARCHY
ROOT Hips
{
  OFFSET 5.84602e-005 68.8428 3.50346
  CHANNELS 6 Xposition Yposition Zposition Zrotation Xrotation Yrotation
  JOINT Spine
  {
    OFFSET 0 8.597 -4.6522
    CHANNELS 3 Zrotation Xrotation Yrotation
    JOINT Spine1
    {
      OFFSET 0 7.8454 0.4098
      CHANNELS 3 Zrotation Xrotation Yrotation
      JOINT Spine2
      {
        OFFSET 0 9.7078 -2.1609
        CHANNELS 3 Zrotation Xrotation Yrotation
        JOINT Neck
        {
          OFFSET 0 21.8761 -0.4549
          CHANNELS 3 Zrotation Xrotation Yrotation
          JOINT Head
          {
            OFFSET 0 12.3537 3.3602
            CHANNELS 3 Zrotation Xrotation Yrotation
            End Site
            {
              OFFSET 0.0001 18.9506 0.5657
            }
          }
        }
        JOINT LeftShoulder
        {
          OFFSET 2.2086 21.1115 7.2329
          CHANNELS 3 Zrotation Xrotation Yrotation
          JOINT LeftArm
          {
            OFFSET 13.1193 3.0282 -4.8998
            CHANNELS 3 Zrotation Xrotation Yrotation
            JOINT LeftForeArm
            {
              OFFSET 27.4081 -0.0973053 -0.2375
              CHANNELS 3 Zrotation Xrotation Yrotation
              JOINT LeftHand
              {
                OFFSET 22.8641 0.0662994 -0.1369
                CHANNELS 3 Zrotation Xrotation Yrotation
                JOINT LeftHandIndex1
                {
                  OFFSET 8.8614 0.775009 2.4612
                  CHANNELS 3 Zrotation Xrotation Yrotation
                  JOINT LeftHandIndex2
                  {
                    OFFSET 3.3146 -0.808304 0.5841
                    CHANNELS 3 Zrotation Xrotation Yrotation
                    JOINT LeftHandIndex3
                    {
                      OFFSET 2.2628 -0.552002 0.3989
                      CHANNELS 3 Zrotation Xrotation Yrotation
                      End Site
                      {
                        OFFSET 1.6102 -0.4807 0.2612
                      }
                    }
                  }
                }
                JOINT LeftHandMiddle1
                {
                  OFFSET 8.9937 0.895004 0.2143
                  CHANNELS 3 Zrotation Xrotation Yrotation
                  JOINT LeftHandMiddle2
                  {
                    OFFSET 4.0984 0.0113983 -0.0242
                    CHANNELS 3 Zrotation Xrotation Yrotation
                    JOINT LeftHandMiddle3
                    {
                      OFFSET 2.2716 0.00689697 -0.0138001
                      CHANNELS 3 Zrotation Xrotation Yrotation
                      End Site
                      {
                        OFFSET 2.0404 -0.1441 0.0027
                      }
                    }
                  }
                }
                JOINT LeftHandRing1
                {
                  OFFSET 8.5234 0.597198 -2.0164
                  CHANNELS 3 Zrotation Xrotation Yrotation
                  JOINT LeftHandRing2
                  {
                    OFFSET 3.7188 -0.188293 -0.2328
                    CHANNELS 3 Zrotation Xrotation Yrotation
                    JOINT LeftHandRing3
                    {
                      OFFSET 2.1191 -0.106598 -0.1332
                      CHANNELS 3 Zrotation Xrotation Yrotation
                      End Site
                      {
                        OFFSET 1.8737 -0.2304 -0.0886
                      }
                    }
                  }
                }
                JOINT LeftHandPinky1
                {
                  OFFSET 7.9094 -0.601089 -3.4825
                  CHANNELS 3 Zrotation Xrotation Yrotation
                  JOINT LeftHandPinky2
                  {
                    OFFSET 2.2874 -0.477005 -0.6314
                    CHANNELS 3 Zrotation Xrotation Yrotation
                    JOINT LeftHandPinky3
                    {
                      OFFSET 1.6774 -0.349396 -0.4633
                      CHANNELS 3 Zrotation Xrotation Yrotation
                      End Site
                      {
                        OFFSET 1.4888 -0.4091 -0.3416
                      }
                    }
                  }
                }
                JOINT LeftHandThumb1
                {
                  OFFSET 1.833 -1.3875 1.3896
                  CHANNELS 3 Zrotation Xrotation Yrotation
                  JOINT LeftHandThumb2
                  {
                    OFFSET 3.4129 -1.121 2.5732
                    CHANNELS 3 Zrotation Xrotation Yrotation
                    JOINT LeftHandThumb3
                    {
                      OFFSET 2.2474 -0.804199 1.6192
                      CHANNELS 3 Zrotation Xrotation Yrotation
                      End Site
                      {
                        OFFSET 1.6527 -0.5689 1.1317
                      }
                    }
                  }
                }
              }
            }
          }
        }
        JOINT RightShoulder
        {
          OFFSET -2.2086 21.1115 7.2329
          CHANNELS 3 Zrotation Xrotation Yrotation
          JOINT RightArm
          {
            OFFSET -13.1216 3.0287 -4.9007
            CHANNELS 3 Zrotation Xrotation Yrotation
            JOINT RightForeArm
            {
              OFFSET -27.4081 -0.0973053 -0.2375
              CHANNELS 3 Zrotation Xrotation Yrotation
              JOINT RightHand
              {
                OFFSET -22.8641 0.0664063 -0.1369
                CHANNELS 3 Zrotation Xrotation Yrotation
                JOINT RightHandIndex1
                {
                  OFFSET -8.8614 0.774994 2.4612
                  CHANNELS 3 Zrotation Xrotation Yrotation
                  JOINT RightHandIndex2
                  {
                    OFFSET -3.3146 -0.808304 0.5841
                    CHANNELS 3 Zrotation Xrotation Yrotation
                    JOINT RightHandIndex3
                    {
                      OFFSET -2.2628 -0.552002 0.3989
                      CHANNELS 3 Zrotation Xrotation Yrotation
                      End Site
                      {
                        OFFSET -1.6102 -0.4807 0.2612
                      }
                    }
                  }
                }
                JOINT RightHandMiddle1
                {
                  OFFSET -8.9937 0.894989 0.2143
                  CHANNELS 3 Zrotation Xrotation Yrotation
                  JOINT RightHandMiddle2
                  {
                    OFFSET -4.0984 0.0113983 -0.0242
                    CHANNELS 3 Zrotation Xrotation Yrotation
                    JOINT RightHandMiddle3
                    {
                      OFFSET -2.2716 0.00691223 -0.0138001
                      CHANNELS 3 Zrotation Xrotation Yrotation
                      End Site
                      {
                        OFFSET -2.0404 -0.1441 0.0027
                      }
                    }
                  }
                }
                JOINT RightHandRing1
                {
                  OFFSET -8.5234 0.597198 -2.0164
                  CHANNELS 3 Zrotation Xrotation Yrotation
                  JOINT RightHandRing2
                  {
                    OFFSET -3.7188 -0.188309 -0.2328
                    CHANNELS 3 Zrotation Xrotation Yrotation
                    JOINT RightHandRing3
                    {
                      OFFSET -2.1191 -0.106598 -0.1332
                      CHANNELS 3 Zrotation Xrotation Yrotation
                      End Site
                      {
                        OFFSET -1.8737 -0.2304 -0.0886
                      }
                    }
                  }
                }
                JOINT RightHandPinky1
                {
                  OFFSET -7.9094 -0.601105 -3.4825
                  CHANNELS 3 Zrotation Xrotation Yrotation
                  JOINT RightHandPinky2
                  {
                    OFFSET -2.2874 -0.477005 -0.6314
                    CHANNELS 3 Zrotation Xrotation Yrotation
                    JOINT RightHandPinky3
                    {
                      OFFSET -1.6774 -0.349396 -0.4633
                      CHANNELS 3 Zrotation Xrotation Yrotation
                      End Site
                      {
                        OFFSET -1.4888 -0.4091 -0.3416
                      }
                    }
                  }
                }
                JOINT RightHandThumb1
                {
                  OFFSET -1.833 -1.38751 1.3896
                  CHANNELS 3 Zrotation Xrotation Yrotation
                  JOINT RightHandThumb2
                  {
                    OFFSET -3.41299 -1.12099 2.5732
                    CHANNELS 3 Zrotation Xrotation Yrotation
                    JOINT RightHandThumb3
                    {
                      OFFSET -2.24741 -0.804108 1.6192
                      CHANNELS 3 Zrotation Xrotation Yrotation
                      End Site
                      {
                        OFFSET -1.6527 -0.5689 1.1317
                      }
                    }
                  }
                }
              }
            }
          }
        }
      }
    }
  }
  JOINT RightUpLeg
  {
    OFFSET -9.1966 3.8861 -0.7581
    CHANNELS 3 Zrotation Xrotation Yrotation
    JOINT RightLeg
    {
      OFFSET -0.7359 -41.0265 0
      CHANNELS 3 Zrotation Xrotation Yrotation
      JOINT RightFoot
      {
        OFFSET 0 -40.2855 0
        CHANNELS 3 Zrotation Xrotation Yrotation
        JOINT RightToeBase
        {
          OFFSET 0 -5.6122 11.7359
          CHANNELS 3 Zrotation Xrotation Yrotation
          End Site
          {
            OFFSET 0 0 7.8731
          }
        }
      }
    }
  }
  JOINT LeftUpLeg
  {
    OFFSET 9.1965 3.8864 -0.7581
    CHANNELS 3 Zrotation Xrotation Yrotation
    JOINT LeftLeg
    {
      OFFSET 0.7359 -41.0268 0
      CHANNELS 3 Zrotation Xrotation Yrotation
      JOINT LeftFoot
      {
        OFFSET 0 -40.2855 0
        CHANNELS 3 Zrotation Xrotation Yrotation
        JOINT LeftToeBase
        {
          OFFSET 0 -5.6122 11.7359
          CHANNELS 3 Zrotation Xrotation Yrotation
          End Site
          {
            OFFSET 0 0 7.8731
          }
        }
      }
    }
  }
}
MOTION
Frames:	6
Frame Time:	0.0333333
1.6305 31.6153 2.50287 0 14.7518 -0 -0.123502 6.63719 -0.409823 -0.200873 13.2752 -0.813408 -0.200873 13.2751 -0.813408 10.6295 -9.34925 1.53643 -6.61239e-007 -2.56071 -3.77321e-007 -17.7043 -24.7686 -30.0883 -44.4339 -1.86536 -10.1854 -47.4668 28.5928 -37.5384 59.4515 22.0437 23.0285 5.86016e-007 -1.37788e-006 -8.10016e-007 -1.59028e-015 -3.18055e-015 -3.18055e-015 8.79024e-007 -2.06681e-006 -1.21502e-006 5.86016e-007 -1.37788e-006 -8.10016e-007 -0.014623 -9.00668e-005 -3.06049e-006 8.78998e-007 -2.06666e-006 -1.21529e-006 5.86016e-007 -1.37788e-006 -8.10016e-007 -0.0187511 -0.00117636 6.16149e-005 8.78978e-007 -2.06662e-006 -1.21537e-006 5.86016e-007 -1.37788e-006 -8.10016e-007 -0.0122475 -0.00324569 0.000677243 1.82185e-006 -3.16386e-006 5.90724e-007 5.86016e-007 -1.37788e-006 -8.10016e-007 -1.59028e-015 -3.18055e-015 -3.18055e-015 8.79024e-007 -2.06681e-006 -1.21502e-006 16.4533 -25.4721 29.2304 45.4073 -1.67475 11.1162 45.6736 27.3358 36.3131 -53.6701 19.1594 -20.3145 -3.8848e-006 7.63158e-007 3.71399e-006 -1.59028e-015 0 3.18055e-015 -2.95609e-007 -6.85504e-007 4.09309e-007 -3.8848e-006 7.63158e-007 3.71399e-006 0.0149848 -9.14089e-005 -4.02315e-007 -2.956e-007 -6.85451e-007 4.09399e-007 -3.8848e-006 7.63158e-007 3.71399e-006 0.0189968 -0.00119086 -5.99733e-005 -2.95593e-007 -6.85437e-007 4.09426e-007 -3.8848e-006 7.63158e-007 3.71399e-006 0.0122649 -0.00324791 -0.000675427 -2.95586e-007 -6.85464e-007 4.09391e-007 -3.8848e-006 7.63158e-007 3.71399e-006 -1.59028e-015 0 3.18055e-015 -2.95609e-007 -6.85504e-007 4.09309e-007 -7.6842 -15.5928 -15.8477 -162.234 85.241 159.973 21.4828 49.6394 -29.4867 -3.85471e-007 2.9632e-007 -4.63241e-007 7.54389 -15.5313 15.697 163.374 85.354 -161.058 -20.8529 48.7584 28.9224 -2.31226e-007 2.15554e-007 -7.93063e-007 
1.6305 31.5971 2.24985 0 15.506 -0 -0.119731 6.36571 -0.412361 -0.194848 12.7321 -0.8189 -0.194848 12.7321 -0.8189 10.5723 -9.77719 1.60205 3.52416e-006 -3.76318 1.54088e-006 -17.8416 -24.484 -30.143 -44.4339 -1.86536 -10.1854 -47.1278 28.3539 -37.3109 58.9866 21.85 23.2055 9.00929e-008 -1.34074e-006 5.37119e-006 5.58884e-007 9.31193e-007 -3.16073e-006 -1.79385e-006 8.562e-007 1.76032e-006 9.00929e-008 -1.34074e-006 5.37119e-006 -0.0146015 -8.92727e-005 -6.15695e-008 -8.52007e-007 -2.42723e-007 3.56573e-006 9.00929e-008 -1.34074e-006 5.37119e-006 -0.018744 -0.00117291 5.67363e-005 -8.52011e-007 -2.42861e-007 3.56573e-006 9.00929e-008 -1.34074e-006 5.37119e-006 -0.0122356 -0.0032412 0.000676312 -8.51889e-007 -2.42673e-007 3.56576e-006 9.00929e-008 -1.34074e-006 5.37119e-006 5.58884e-007 9.31193e-007 -3.16073e-006 -1.79385e-006 8.562e-007 1.76032e-006 16.5901 -25.1929 29.282 45.4073 -1.67476 11.1162 45.3176 27.0917 36.0624 -53.2058 19.0167 -20.457 -4.77083e-015 -3.18055e-015 -0 -7.95139e-015 -6.36111e-015 -3.18055e-015 -1.59028e-015 -6.36111e-015 -3.18055e-015 -4.77083e-015 -3.18055e-015 -0 0.0149936 -9.34481e-005 -1.93752e-006 -3.18055e-015 -1.90833e-014 -6.36111e-015 -4.77083e-015 -3.18055e-015 -0 0.018964 -0.00118997 -6.16705e-005 -7.95139e-015 3.18055e-015 -1.59028e-014 -4.77083e-015 -3.18055e-015 -0 0.0122759 -0.0032549 -0.000686862 3.18055e-015 0 -3.18055e-015 -4.77083e-015 -3.18055e-015 -0 -7.95139e-015 -6.36111e-015 -3.18055e-015 -1.59028e-015 -6.36111e-015 -3.18055e-015 -7.77867 -16.6212 -16.0432 -163.082 84.9361 160.805 21.4961 49.6404 -29.5032 5.60224e-008 5.39199e-008 1.98766e-007 7.63816 -16.5601 15.8917 164.166 85.0474 -161.835 -20.8658 48.7592 28.9384 1.6966e-006 1.87461e-006 -3.91092e-008 
1.6305 31.5803 1.9966 0 16.2601 -0 -0.11596 6.0942 -0.414846 -0.188865 12.1891 -0.824264 -0.188865 12.1891 -0.824264 10.5156 -10.2049 1.6673 1.04627e-006 -4.96724 -5.06138e-007 -17.9784 -24.1993 -30.1967 -44.4339 -1.86536 -10.1854 -46.7885 28.1163 -37.0823 58.5229 21.655 23.3806 -1.90352e-006 -9.29486e-007 -3.83195e-006 3.04862e-006 4.82968e-007 -1.38867e-007 -2.19649e-006 -2.40574e-007 -3.42689e-006 -1.90352e-006 -9.29486e-007 -3.83195e-006 -0.0146131 -9.17707e-005 -1.0267e-006 -2.19615e-006 -2.40134e-007 -3.42692e-006 -1.90352e-006 -9.29486e-007 -3.83195e-006 -0.0187628 -0.00117769 5.92135e-005 -2.19608e-006 -2.39983e-007 -3.42691e-006 -1.90352e-006 -9.29486e-007 -3.83195e-006 -0.0122628 -0.00324758 0.000675825 -2.1963e-006 -2.40117e-007 -3.42687e-006 -1.90352e-006 -9.29486e-007 -3.83195e-006 3.04862e-006 4.82968e-007 -1.38867e-007 -2.19649e-006 -2.40574e-007 -3.42689e-006 16.7264 -24.9136 29.3329 45.4073 -1.67475 11.1162 44.9611 26.849 35.8105 -52.7422 18.8729 -20.5982 -1.59028e-015 3.18055e-015 -3.18055e-015 -1.59028e-015 -3.18055e-015 -6.36111e-015 -1.59028e-015 -3.18055e-015 -6.36111e-015 -1.59028e-015 3.18055e-015 -3.18055e-015 0.0150052 -9.19033e-005 1.23725e-006 -3.18055e-015 -9.54166e-015 -3.18055e-015 -1.59028e-015 3.18055e-015 -3.18055e-015 0.0189759 -0.00119176 -6.26049e-005 -3.18055e-015 9.54166e-015 9.54166e-015 -1.59028e-015 3.18055e-015 -3.18055e-015 0.0122985 -0.00325427 -0.000672303 -3.18055e-015 -6.36111e-015 -0 -1.59028e-015 3.18055e-015 -3.18055e-015 -1.59028e-015 -3.18055e-015 -6.36111e-015 -1.59028e-015 -3.18055e-015 -6.36111e-015 -7.87683 -17.6495 -16.2414 -163.835 84.6299 161.544 21.5095 49.6413 -29.5198 -2.23822e-007 -2.15797e-007 -7.95103e-007 7.73618 -17.5877 16.0892 164.863 84.7405 -162.518 -20.8787 48.7601 28.9546 3.25665e-006 3.09593e-006 3.37071e-007 
1.6305 31.5648 1.74315 0 17.014 -0 -0.112191 5.82276 -0.417276 -0.182923 11.6463 -0.829504 -0.182923 11.6463 -0.829505 10.4594 -10.6332 1.73224 -8.51826e-007 -6.17263 1.22602e-006 -18.1145 -23.9145 -30.2496 -44.4339 -1.86537 -10.1854 -46.4489 27.8799 -36.8527 58.0607 21.4587 23.5537 3.63442e-006 -8.94949e-007 -9.48785e-007 2.66467e-007 1.62034e-006 -2.75561e-006 3.90089e-006 7.25387e-007 -3.70439e-006 3.63442e-006 -8.94949e-007 -9.48785e-007 -0.0145971 -8.85435e-005 -2.95673e-006 3.9008e-006 7.25858e-007 -3.7043e-006 3.63442e-006 -8.94949e-007 -9.48785e-007 -0.0187267 -0.00117415 5.39265e-005 3.90075e-006 7.25984e-007 -3.70431e-006 3.63442e-006 -8.94949e-007 -9.48785e-007 -0.0122806 -0.00325312 0.000674635 3.90072e-006 7.25742e-007 -3.70442e-006 3.63442e-006 -8.94949e-007 -9.48785e-007 2.66467e-007 1.62034e-006 -2.75561e-006 3.90089e-006 7.25387e-007 -3.70439e-006 16.8621 -24.6342 29.3829 45.4073 -1.67476 11.1162 44.6043 26.6077 35.5575 -52.2795 18.7281 -20.738 1.59028e-015 -3.18055e-015 -3.18055e-015 -1.59028e-015 -6.36111e-015 -6.36111e-015 1.59028e-015 -1.27222e-014 -3.18055e-015 1.59028e-015 -3.18055e-015 -3.18055e-015 0.0149841 -9.14283e-005 3.12645e-006 3.18055e-015 -3.18055e-015 -9.54166e-015 1.59028e-015 -3.18055e-015 -3.18055e-015 0.0190065 -0.00119202 -5.73523e-005 1.43125e-014 6.36111e-015 6.36111e-015 1.59028e-015 -3.18055e-015 -3.18055e-015 0.0122969 -0.00325348 -0.000675636 0 9.54166e-015 -0 1.59028e-015 -3.18055e-015 -3.18055e-015 -1.59028e-015 -6.36111e-015 -6.36111e-015 1.59028e-015 -1.27222e-014 -3.18055e-015 -7.97883 -18.6769 -16.4425 -164.507 84.3228 162.201 21.5229 49.6422 -29.5364 -1.67665e-007 -1.61934e-007 -5.96358e-007 7.83788 -18.6159 16.2895 165.489 84.4315 -163.129 -20.8917 48.7608 28.9708 -1.59028e-015 -3.18055e-015 -6.36111e-015 
1.6305 31.5507 1.48951 0 17.7676 -0 -0.108423 5.55149 -0.419656 -0.17702 11.1036 -0.834621 -0.17702 11.1036 -0.83462 10.4033 -11.0615 1.79686 -4.04507e-006 -7.37912 1.43866e-006 -18.2501 -23.6297 -30.3016 -44.4339 -1.86536 -10.1854 -46.109 27.6446 -36.622 57.5997 21.2611 23.7249 -4.77083e-015 3.18055e-015 3.18055e-015 7.78265e-007 -2.39396e-006 1.67134e-006 3.18055e-015 -3.18055e-015 6.36111e-015 -4.77083e-015 3.18055e-015 3.18055e-015 -0.0146201 -8.87755e-005 -5.11122e-007 -1.11319e-014 0 9.54166e-015 -4.77083e-015 3.18055e-015 3.18055e-015 -0.0187304 -0.00117429 5.66195e-005 -7.06225e-031 1.27222e-014 3.18055e-015 -4.77083e-015 3.18055e-015 3.18055e-015 -0.0122977 -0.0032549 0.000679008 5.29669e-031 -9.54166e-015 3.18055e-015 -4.77083e-015 3.18055e-015 3.18055e-015 7.78265e-007 -2.39396e-006 1.67134e-006 3.18055e-015 -3.18055e-015 6.36111e-015 16.9972 -24.3547 29.432 45.4073 -1.67475 11.1162 44.2471 26.3679 35.3034 -51.8177 18.5822 -20.8764 -4.77083e-015 -3.18055e-015 3.18055e-015 -5.22675e-007 -1.69876e-006 -2.1013e-006 1.43125e-014 3.18055e-015 -0 -4.77083e-015 -3.18055e-015 3.18055e-015 0.0150073 -9.15831e-005 -2.33847e-006 -1.11319e-014 6.36111e-015 -3.18055e-015 -4.77083e-015 -3.18055e-015 3.18055e-015 0.0190214 -0.00119398 -5.89607e-005 -1.59028e-015 3.18055e-015 6.36111e-015 -4.77083e-015 -3.18055e-015 3.18055e-015 0.0123234 -0.00326335 -0.000680267 1.01124e-006 1.07739e-006 1.86606e-006 -4.77083e-015 -3.18055e-015 3.18055e-015 -5.22675e-007 -1.69876e-006 -2.1013e-006 1.43125e-014 3.18055e-015 -0 -8.08481 -19.7036 -16.6467 -165.111 84.015 162.79 21.5364 49.6431 -29.5531 -1.39552e-007 -1.35016e-007 -4.96991e-007 7.94365 -19.6422 16.4928 166.047 84.1228 -163.672 -20.9047 48.7617 28.9871 3.20168e-006 6.69911e-009 -8.21432e-007 
1.6305 31.5379 1.23573 0 18.5209 -0 -0.104654 5.28028 -0.42198 -0.171154 10.5612 -0.839612 -0.171154 10.5612 -0.839612 10.3478 -11.4894 1.86114 1.02696e-006 -8.58637 2.65423e-007 -18.385 -23.3447 -30.3528 -44.4339 -1.86536 -10.1854 -45.7689 27.4107 -36.3903 57.1401 21.0623 23.8941 -4.77083e-015 0 -6.36111e-015 2.61442e-006 -2.43112e-006 2.48677e-006 -2.32157e-006 1.74224e-006 -2.89193e-006 -4.77083e-015 0 -6.36111e-015 -0.0146084 -9.13243e-005 6.52934e-006 -6.36111e-015 0 3.18055e-015 -4.77083e-015 0 -6.36111e-015 -0.0187561 -0.00117499 5.59117e-005 -6.36111e-015 3.18055e-015 3.18055e-015 -4.77083e-015 0 -6.36111e-015 -0.0122283 -0.003237 0.000676995 -2.32045e-006 1.74288e-006 -2.89174e-006 -4.77083e-015 0 -6.36111e-015 2.61442e-006 -2.43112e-006 2.48677e-006 -2.32157e-006 1.74224e-006 -2.89193e-006 17.1318 -24.0752 29.4803 45.4073 -1.67475 11.1162 43.8895 26.1296 35.0483 -51.3566 18.4353 -21.0135 3.18055e-015 6.36111e-015 9.54166e-015 -2.94904e-007 -6.86357e-007 4.08227e-007 -1.59028e-015 3.18055e-015 -6.36111e-015 3.18055e-015 6.36111e-015 9.54166e-015 0.0149946 -8.97891e-005 4.56683e-006 -1.99846e-006 -1.07335e-006 -3.24328e-006 3.18055e-015 6.36111e-015 9.54166e-015 0.0190295 -0.00119454 -5.69791e-005 -6.36111e-015 0 -3.18055e-015 3.18055e-015 6.36111e-015 9.54166e-015 0.0122529 -0.00324309 -0.000675199 -1.99881e-006 -1.07359e-006 -3.24332e-006 3.18055e-015 6.36111e-015 9.54166e-015 -2.94904e-007 -6.86357e-007 4.08227e-007 -1.59028e-015 3.18055e-015 -6.36111e-015 -8.19494 -20.7284 -16.8541 -165.655 83.707 163.319 21.5498 49.6439 -29.5698 5.11018e-007 -1.59551e-007 8.77752e-007 8.05347 -20.6674 16.6994 166.549 83.8137 -164.159 -20.9178 48.7625 29.0035 4.02278e-007 -3.78318e-007 1.38822e-006 
